<svg width="200" height="192" viewBox="0 0 200 192" fill="none" xmlns="http://www.w3.org/2000/svg">
<path d="M189.665 0H10.7734C9.35197 0.0317633 7.95091 0.336538 6.65024 0.896909C5.34957 1.45728 4.17477 2.26227 3.19298 3.26588C2.21119 4.26949 1.44164 5.45206 0.928293 6.74601C0.414949 8.03997 0.167873 9.41996 0.201182 10.8071V181.193C0.167873 182.58 0.414949 183.96 0.928293 185.254C1.44164 186.548 2.21119 187.73 3.19298 188.734C4.17477 189.738 5.34957 190.543 6.65024 191.103C7.95091 191.663 9.35197 191.968 10.7734 192H189.665C192.528 191.925 195.244 190.746 197.218 188.72C199.192 186.694 200.263 183.988 200.195 181.193V10.8071C200.263 8.01248 199.192 5.30572 197.218 3.27999C195.244 1.25426 192.528 0.0747786 189.665 0ZM44.2032 44.8598H79.0538V71.4087H44.2032V44.8598ZM44.2032 77.8929H79.0538V108.234H44.2032V77.8929ZM44.2032 114.596H79.0538V147.222H44.2032V114.596ZM37.8515 179.031H8.60043V153.584H37.8515V179.031ZM37.8515 147.059H8.60043V114.433H37.8515V147.059ZM37.8515 108.071H8.60043V77.7706H37.8515V108.071ZM37.8515 71.3679H8.60043V44.7375H37.8515V71.3679ZM44.2032 179.031V153.584H79.0538V179.031H44.2032ZM117.122 179.031H85.4055V153.584H117.122V179.031ZM117.122 147.059H85.4055V114.433H117.122V147.059ZM117.122 108.071H85.4055V77.7706H117.122V108.071ZM117.122 71.3679H85.4055V44.7375H117.122V71.3679ZM153.017 179.113H123.432V153.584H153.017V179.113ZM153.017 147.14H123.432V114.515H153.017V147.14ZM153.017 108.153H123.432V77.7706H153.017V108.153ZM153.017 71.4494H123.432V44.7375H153.017V71.4494ZM191.754 179.195H159.369V153.584H191.754V179.195ZM191.754 147.222H159.369V114.596H191.754V147.222ZM191.754 108.234H159.369V77.7706H191.754V108.234ZM191.754 71.531H159.369V44.7375H191.754V71.531Z" fill="#B9DDF8"/>
<path d="M106.042 75.6536L99.8652 95.0347L93.8993 75.6536L74.0858 69.6111L93.8993 63.7754L99.8652 44.1809L106.042 63.7754L125.856 69.6111L106.042 75.6536ZM140.563 65.0226L137.576 74.8199L134.167 65.0226L124.363 61.8947L134.167 58.9735L137.576 49.383L140.563 58.9735L150.367 61.8947L140.563 65.0226ZM43.1859 171.525L165.272 55.6455C166.124 54.6051 167.406 53.9782 168.892 53.9782C170.808 53.7714 172.731 54.3983 174.217 55.8523C174.858 56.2724 175.71 57.1061 176.985 58.1465C179.331 60.234 181.888 62.735 183.803 65.236C184.656 66.4899 185.085 67.5303 185.085 68.5707C185.297 70.6582 184.656 72.5323 183.381 73.7795L61.2949 190.08C60.2313 191.12 58.9495 191.54 57.4563 191.747C55.5404 191.954 53.6177 191.327 52.1313 189.873C51.4904 189.246 50.6381 188.619 49.3631 187.372C47.0177 185.498 44.4609 182.997 42.7563 180.282C41.9041 179.028 41.4745 177.781 41.2632 176.741C41.0518 174.653 41.6927 172.986 43.1791 171.532L43.1859 171.525ZM141.197 87.3249L150.149 96.2885L178.485 69.4044L169.533 60.234L141.197 87.3249ZM81.7562 99.203L78.988 108.794L76.0017 99.203L66.1972 96.0751L76.0017 93.1539L78.988 83.3566L81.7562 93.1539L91.9834 96.0751L81.7562 99.203ZM181.042 91.9134L184.24 101.711L194.044 104.632L184.24 107.76L181.042 117.35L177.844 107.76L168.04 104.632L177.844 101.711L181.042 91.9134Z" fill="#0D1A2D"/>
</svg>
